# xmcd
#
# Track frame offsets:
#	150
#	17227
#	35192
#	55185
#	74067
#	90857
#	111545
#	134445
#	154725
#	170040
#	187992
#
# Disc length: 2674 seconds
#
# Revision: 0
# Processed by: cddbd v1.5.2PL0 Copyright (c) Steve Scherf et al.
# Submitted via: audiograbber 1.83.01
#
DISCID=9e0a700b
DTITLE=Trippin' - Music From The Motion Picture
DYEAR=1999
DGENRE=Soundtrack
TTITLE0=RX Lord, DJ Fury - Da Bomb (Drop Mix)
TTITLE1=Brownstone - Party Over Here
TTITLE2=The Tonyies - We Can Make It
TTITLE3=Charli Baltimore - Everybody Wanna Know
TTITLE4=TQ - Come See Me
TTITLE5=Men Of Vizion - Break Me Off (Love Theme From Trippin')
TTITLE6=3T - Thinkin'
TTITLE7=No Authority - Girlfriend
TTITLE8=The Mint Squad - M.I.N.T
TTITLE9=7 Mile - After (Remix)
TTITLE10=Michel Colombier - Greg And Cinny
EXTD=www.RapMusicGuide.com
EXTT0=
EXTT1=
EXTT2=
EXTT3=
EXTT4=
EXTT5=
EXTT6=
EXTT7=
EXTT8=
EXTT9=
EXTT10=
PLAYORDER=
